<svg width="386.53855590820314" height="386.53855590820314" viewBox="0 0 168.75 168.75" class="css-1j8o68f">
  <defs id="SvgjsDefs9845">
    <linearGradient id="SvgjsLinearGradient9852">
      <stop id="SvgjsStop9853" stop-color="#7f00ff" offset="0"></stop>
      <stop id="SvgjsStop9854" stop-color="#e100ff" offset="1"></stop>
    </linearGradient>
  </defs>
  <g id="SvgjsG9846" featurekey="rootContainer" transform="matrix(3.375,0,0,3.375,0.16874782741069794,0)" fill="#3c4285">
    <path xmlns="http://www.w3.org/2000/svg" d="M24.95 0a25 25 0 1 0 25 25 25 25 0 0 0-25-25zm0 46.91a22 22 0 1 1 22-22 22 22 0 0 1-22 21.99z">
    </path>
    <path xmlns="http://www.w3.org/2000/svg" d="M24.95 3.65a21.3 21.3 0 1 0 21.3 21.3 21.33 21.33 0 0 0-21.3-21.3z">
    </path>
  </g>
  <g id="SvgjsG9847" featurekey="symbolFeature-0" transform="matrix(0.5203590291503999,0,0,0.5203590291503999,57.98204655746784,12.052818196209522)" fill="#ffc254">
    <path xmlns="http://www.w3.org/2000/svg" d="M29.399,57.112c0.615,0.308,1.077,0.846,1.077,1.383c0,1.039-1.038,1.961-1.999,1.462l-15.223-7.881  c-0.846-0.499-1.576-0.808-1.576-1.884c0-1.115,0.692-1.385,1.576-1.922l15.223-7.881c1.038-0.346,1.999,0.424,1.999,1.462  c0,0.575-0.461,1.114-1.077,1.423l-13.761,6.918L29.399,57.112z">
    </path>
    <path xmlns="http://www.w3.org/2000/svg" d="M29.033,60.209c-0.208,0-0.413-0.052-0.608-0.152l-15.223-7.881c-0.086-0.05-0.165-0.095-0.242-0.141  c-0.748-0.431-1.395-0.804-1.395-1.843c0-1.057,0.594-1.406,1.346-1.849c0.093-0.054,0.187-0.11,0.284-0.169l15.229-7.885  c0.195-0.066,0.377-0.097,0.558-0.097c0.9,0,1.606,0.728,1.606,1.658c0,0.587-0.437,1.172-1.139,1.522l-13.562,6.818l13.562,6.818  c0.691,0.346,1.139,0.93,1.139,1.484C30.588,59.407,29.861,60.209,29.033,60.209z M28.982,40.419c-0.156,0-0.314,0.026-0.47,0.078  L13.306,48.37c-0.091,0.057-0.188,0.113-0.281,0.167c-0.743,0.439-1.234,0.728-1.234,1.655c0,0.91,0.537,1.219,1.281,1.648  c0.079,0.045,0.158,0.09,0.239,0.139l15.217,7.877c0.162,0.084,0.332,0.127,0.504,0.127c0.697,0,1.33-0.709,1.33-1.488  c0-0.465-0.407-0.98-1.014-1.283l-13.962-7.02l13.962-7.02c0.616-0.308,1.014-0.828,1.014-1.321  C30.363,41.048,29.756,40.419,28.982,40.419z">
    </path>
    <path xmlns="http://www.w3.org/2000/svg" d="M46.385,64.416c-0.231,0.691-0.922,1.077-1.614,0.961c-0.769-0.153-1.269-0.885-1.154-1.692  c0-0.076,0.039-0.191,0.077-0.307l9.88-27.831c0.23-0.692,0.922-1.038,1.614-0.923c0.73,0.154,1.269,0.885,1.153,1.652  c0,0.078-0.039,0.193-0.077,0.27L46.385,64.416z">
    </path>
    <path xmlns="http://www.w3.org/2000/svg" d="M45.016,65.511c-0.088,0-0.177-0.008-0.263-0.022c-0.837-0.167-1.371-0.949-1.247-1.819  c-0.001-0.076,0.038-0.193,0.079-0.318l9.883-27.842c0.207-0.618,0.778-1.02,1.457-1.02c0.094,0,0.188,0.009,0.281,0.023  c0.812,0.172,1.369,0.97,1.247,1.781c0.001,0.086-0.047,0.22-0.087,0.302l-9.875,27.856C46.281,65.084,45.688,65.511,45.016,65.511z   M54.925,34.715c-0.58,0-1.068,0.34-1.244,0.867l-9.88,27.833c-0.035,0.104-0.07,0.213-0.07,0.27  c-0.108,0.767,0.349,1.439,1.062,1.582c0.071,0.012,0.147,0.018,0.223,0.018c0.575,0,1.083-0.363,1.263-0.904l9.881-27.872  c0.041-0.085,0.07-0.182,0.07-0.231c0.105-0.712-0.373-1.396-1.064-1.543C55.089,34.722,55.007,34.715,54.925,34.715z">
    </path>
    <path xmlns="http://www.w3.org/2000/svg" d="M84.362,50.192L70.6,43.274c-0.614-0.309-1.075-0.848-1.075-1.423c0-1.038,1.037-1.962,1.998-1.462l15.223,7.881  c0.885,0.537,1.576,0.807,1.576,1.922c0,1.076-0.73,1.385-1.576,1.884l-15.223,7.881c-0.961,0.499-1.998-0.423-1.998-1.462  c0-0.537,0.461-1.075,1.075-1.383L84.362,50.192z">
    </path>
    <path xmlns="http://www.w3.org/2000/svg" d="M70.967,60.209c-0.828,0-1.556-0.802-1.556-1.714c0-0.555,0.447-1.139,1.139-1.484l13.562-6.818L70.55,43.374  c-0.702-0.352-1.139-0.936-1.139-1.522c0-0.913,0.728-1.714,1.556-1.714c0.209,0,0.413,0.051,0.608,0.152l15.223,7.881  c0.104,0.062,0.198,0.119,0.29,0.173c0.753,0.442,1.347,0.792,1.347,1.849c0,1.039-0.646,1.412-1.395,1.843  c-0.078,0.046-0.157,0.091-0.237,0.138l-15.228,7.884C71.38,60.157,71.176,60.209,70.967,60.209z M70.967,40.363  c-0.696,0-1.33,0.709-1.33,1.488c0,0.493,0.397,1.013,1.014,1.321l13.962,7.02l-13.962,7.02c-0.606,0.305-1.014,0.82-1.014,1.283  c0,0.779,0.634,1.488,1.33,1.488c0.172,0,0.342-0.043,0.504-0.127l15.223-7.88c0.075-0.046,0.155-0.091,0.233-0.136  c0.744-0.43,1.282-0.738,1.282-1.648c0-0.928-0.491-1.216-1.235-1.655c-0.093-0.054-0.188-0.11-0.287-0.17l-15.216-7.876  C71.309,40.405,71.139,40.363,70.967,40.363z">
    </path>
  </g>
  <g id="SvgjsG9848" featurekey="nameFeature-0" transform="matrix(2.5665323763011267,0,0,2.5665323763011267,34,34.97240016264051)" fill="url(#SvgjsLinearGradient9852)">
    <path d="M0 12.187000000000001 l5.4688 0.000019073 l0 5.2344 c0 1.7448 -0.032559 3.6264 -0.097656 5.6445 l0 0.058594 l0.058594 0 c0.44271 -0.85938 1.6732 -3.06 3.6914 -6.6016 c1.0287 -1.7969 1.543 -3.151 1.543 -4.0625 l0 -0.27344 l5.6055 0 l0 0.13672 c0 1.7838 -0.72916 3.7305 -2.1875 5.8398 l-3.3203 4.8242 l3.2617 6.9531 l2.9492 0 l0 0.83984 l-3.3203 0 l0 0.058594 c0.53385 1.1458 0.87891 1.8294 1.0352 2.0508 l0.60547 0 l0 2.5195 l0.83984 0 l0 4.5508 c-0.95053 0.026035 -1.6537 0.039063 -2.1094 0.039063 l-1.3477 0 c-0.48178 0 -1.1393 -0.013027 -1.9727 -0.039063 l0 -3.0469 l-1.2109 0 l0 -4.0234 l-0.70313 0 l-0.74219 -2.1094 l5.5664 0 l0 -0.83984 l-5.0977 0 c0 -0.065098 -0.29947 -0.99609 -0.89844 -2.793 l-0.039063 0 c-0.3125 0.58594 -0.9375 1.5169 -1.875 2.793 l2.3438 0 l0 0.83984 l-2.5781 0 l0 1.3672 l-0.33203 0 l0 6.3477 l0.33203 0 l0 1.4063 c0 0.065098 -0.032559 0.097656 -0.097656 0.097656 l-5.2734 0 c-0.065098 0 -0.097656 -0.032559 -0.097656 -0.097656 l0 -2.1875 l2.4805 0 l0 -0.9375 l-2.4805 0 l0 -24.59 z M2.2461 29.941000000000003 l0 0.83982 l3.1836 0 c0 -0.10416 0.078125 -0.3841 0.23438 -0.83982 l-3.418 0 z M19.255858125 12.09 l5.7031 0 c0.078125 0 0.6901 1.4909 1.8359 4.4727 c0.091152 0.11719 1.2891 3.06 3.5938 8.8281 l1.4648 0 l0 -13.301 l4.9805 0 l0 15.84 l0.56641 0 l0 6.1719 l-2.0117 0 l0 1.1914 l2.0117 0 l0 3.6719 l-7.4805 0 l0 -4.668 l-1.3281 0 c-1.7969 -4.375 -3.0078 -7.3959 -3.6328 -9.0625 l0 -4.707 l-0.70313 0 l0 14.336 l-1.1328 0 l0 4.9414 l-4.668 0 l0 -10.645 l0.83984 0 l0 -0.058594 c-0.026035 -9.1928 -0.039063 -14.863 -0.039063 -17.012 z M27.654278124999998 25.391 l0 1.0352 l3.1055 0 c-0.2474 -0.6901 -0.40365 -1.0352 -0.46875 -1.0352 l-2.6367 0 z M31.893078125000002 25.391 l0 1.0352 l-1.0938 0 c0.66406 1.6537 1.0612 2.7344 1.1914 3.2422 l0.039063 0 l0 -0.13672 c-0.091152 -1.6927 -0.13672 -2.7279 -0.13672 -3.1055 l2.2656 0 l0 -1.0352 l-2.2656 0 z M29.920078125 39.47266 l9.043 0 l0 0.52734 l-9.043 0 l0 -0.52734 z"></path>
  </g>
</svg>